<?xml version="1.0" standalone="no"?>
<!DOCTYPE svg PUBLIC "-//W3C//DTD SVG 20010904//EN"
 "http://www.w3.org/TR/2001/REC-SVG-20010904/DTD/svg10.dtd">
<svg version="1.0" xmlns="http://www.w3.org/2000/svg"
 width="5000.000000pt" height="3749.000000pt" viewBox="0 0 5000.000000 3749.000000"
 preserveAspectRatio="xMidYMid meet">

<g transform="translate(0.000000,3749.000000) scale(0.100000,-0.100000)"
fill="#000000" stroke="none">
<path d="M33522 23299 c3 -32 5 -33 68 -47 990 -211 2258 -686 3728 -1396 381
-184 1079 -544 1215 -627 l29 -17 -74 -43 c-88 -52 -283 -138 -468 -207 -373
-138 -886 -273 -1435 -376 -104 -20 -203 -39 -220 -42 -26 -6 -16 8 81 107
180 185 278 320 304 418 10 39 9 48 -14 96 -53 106 -237 254 -526 420 -159 92
-789 411 -1074 544 -838 392 -1512 640 -2047 756 -716 153 -1747 284 -2684
340 -679 40 -1655 51 -2270 26 -2230 -91 -3376 -427 -5158 -1513 -322 -196
-851 -537 -867 -558 -3 -4 -196 -145 -430 -315 -770 -559 -1014 -738 -1389
-1019 -139 -105 -261 -196 -270 -203 -18 -12 -1 -14 -520 63 -168 25 -360 56
-428 70 -136 27 -147 28 -139 15 12 -19 306 -71 801 -141 380 -53 349 -44 284
-87 -189 -126 -434 -383 -694 -728 -106 -140 -132 -190 -195 -371 -81 -235
-126 -432 -165 -722 -36 -271 -45 -393 -52 -707 -17 -822 100 -1823 353 -3016
69 -329 95 -404 166 -484 63 -72 14 -69 788 -61 4788 46 7702 156 9195 347
2049 262 3105 851 3894 2173 385 646 651 1378 776 2136 61 372 85 762 67 1070
l-12 192 -252 246 c-456 444 -488 476 -484 479 3 4 92 15 301 38 28 3 66 8 85
10 19 3 190 23 380 45 1010 118 1722 219 2015 286 61 13 133 27 160 29 65 5
468 85 715 141 364 83 711 184 1000 290 181 67 459 198 499 235 12 11 39 26
59 31 l36 10 -21 18 c-12 10 -167 92 -345 183 -1390 711 -2866 1330 -4073
1706 -252 78 -586 173 -660 187 -36 6 -36 6 -33 -27z m-3467 -1321 c-123 -304
-139 -745 -36 -1006 24 -60 25 -66 11 -57 -6 3 -7 -1 -4 -9 3 -9 10 -14 15
-11 4 3 13 -4 19 -15 6 -11 8 -20 5 -20 -10 0 -20 5 -18 10 1 3 -1240 4 -2758
2 -2025 -1 -2759 1 -2759 9 0 6 8 8 18 5 16 -6 16 -5 0 7 -10 8 -14 18 -10 23
4 4 0 3 -9 -4 -9 -6 -20 -8 -24 -4 -5 4 -5 1 -1 -6 4 -7 12 -10 17 -7 5 3 6
-1 3 -9 -5 -13 -10 -11 -28 11 -11 15 -20 30 -19 33 5 15 -110 9 -161 -8 -46
-15 -56 -16 -52 -5 4 8 1 11 -5 8 -6 -4 -8 -13 -5 -20 11 -29 -19 -35 -187
-35 l-169 0 28 -37 c15 -21 33 -41 38 -45 6 -4 8 -8 4 -8 -4 0 5 -25 19 -56
22 -49 25 -66 21 -138 -6 -112 -51 -197 -168 -316 -96 -98 -272 -233 -370
-284 -68 -36 -191 -82 -239 -91 -15 -2 -83 -18 -152 -34 -169 -40 -292 -58
-574 -80 -344 -28 -492 -35 -480 -22 6 6 71 14 145 18 l135 8 -80 6 c-193 15
-356 87 -416 184 -11 18 -19 24 -19 14 0 -26 51 -85 120 -140 36 -28 66 -55
68 -60 6 -14 -307 -467 -338 -489 -16 -11 -53 -32 -82 -45 -61 -28 -49 -31 40
-10 101 24 117 37 191 150 l67 103 815 6 c2599 20 4950 126 7784 351 884 70
2688 233 2893 261 23 3 41 1 40 -4 -2 -5 162 -170 364 -366 l367 -358 8 -66
c4 -37 7 -193 7 -347 -2 -883 -216 -1753 -638 -2595 -385 -767 -843 -1315
-1416 -1694 -758 -502 -1724 -767 -3340 -915 -1506 -139 -4403 -233 -8300
-271 -1039 -9 -945 -18 -1017 89 -59 87 -80 161 -172 616 -235 1163 -333 2037
-318 2835 12 616 84 1068 233 1467 56 150 74 182 184 328 264 351 575 665 744
752 29 15 126 13 426 -12 90 -8 506 -33 635 -40 66 -3 147 -8 180 -11 l61 -5
191 283 191 284 11 111 c32 313 135 478 397 636 124 74 400 167 588 197 77 13
82 15 325 175 425 279 502 325 572 341 275 64 893 174 1199 213 508 65 1452
125 3550 226 63 3 149 8 190 10 41 3 289 14 550 25 261 11 556 24 655 29 99 4
201 9 227 10 l46 1 -33 -82z m2422 -42 l171 -24 209 -96 c114 -53 226 -107
248 -119 l40 -23 -4 -299 c-2 -165 -4 -301 -6 -303 -1 -1 -73 19 -161 45 -208
61 -261 62 -363 12 l-72 -36 -107 19 c-91 16 -118 17 -182 7 -41 -6 -90 -20
-108 -31 -18 -11 -35 -19 -37 -17 -1 2 1 31 7 64 5 33 31 211 58 395 28 184
55 359 61 388 12 51 13 52 43 47 17 -3 108 -16 203 -29z m1373 -599 c142 -71
309 -171 378 -227 71 -57 80 -95 35 -142 -56 -60 -74 -64 -329 -73 -135 -6
-175 -4 -192 6 -22 14 -22 19 -22 251 0 184 3 238 13 238 6 0 59 -24 117 -53z
m-9905 -497 c3 -5 1 -10 -4 -10 -6 0 -11 5 -11 10 0 6 2 10 4 10 3 0 8 -4 11
-10z m276 3 c-11 -5 -11 -7 0 -15 10 -6 7 -7 -10 -3 -15 5 -21 3 -17 -3 7 -12
-20 -10 -31 3 -4 4 -2 5 5 1 7 -4 14 -1 17 6 3 8 16 14 28 15 12 0 16 -1 8 -4z
m319 -23 c0 -5 -2 -10 -4 -10 -3 0 -8 5 -11 10 -3 6 -1 10 4 10 6 0 11 -4 11
-10z"/>
<path d="M22598 19803 c18 -2 45 -2 60 0 15 2 0 4 -33 4 -33 0 -45 -2 -27 -4z"/>
<path d="M22433 19793 c26 -2 67 -2 90 0 23 2 2 3 -48 3 -49 0 -68 -1 -42 -3z"/>
<path d="M32455 18700 c160 -9 237 -22 282 -50 32 -19 91 -96 81 -106 -5 -4
-319 -36 -493 -48 -44 -4 -105 -8 -135 -11 -114 -10 -340 -24 -480 -30 -80 -4
-156 -9 -170 -11 -14 -2 -155 -7 -314 -11 l-288 -6 6 24 c6 18 5 21 -3 9 -15
-21 -13 -105 3 -144 21 -50 56 -71 148 -89 184 -36 254 -39 667 -34 435 6 571
17 758 62 129 31 209 71 262 131 72 82 77 160 14 235 -53 62 -171 90 -371 87
l-107 -1 140 -7z m-1412 -380 c94 -20 372 -29 622 -20 242 9 295 6 295 -21 0
-7 -3 -10 -6 -6 -4 3 -12 1 -19 -6 -31 -29 -56 -47 -66 -47 -6 0 3 13 20 29
17 16 31 33 31 37 0 4 -9 -2 -20 -14 -51 -54 -64 -56 -360 -57 -293 0 -384 10
-492 57 -50 21 -112 76 -73 65 11 -4 42 -11 68 -17z"/>
<path d="M31958 18683 c7 -3 16 -2 19 1 4 3 -2 6 -13 5 -11 0 -14 -3 -6 -6z"/>
<path d="M31818 18673 c6 -2 18 -2 25 0 6 3 1 5 -13 5 -14 0 -19 -2 -12 -5z"/>
<path d="M31698 18663 c7 -3 16 -2 19 1 4 3 -2 6 -13 5 -11 0 -14 -3 -6 -6z"/>
<path d="M31593 18653 c9 -2 23 -2 30 0 6 3 -1 5 -18 5 -16 0 -22 -2 -12 -5z"/>
<path d="M31498 18643 c6 -2 18 -2 25 0 6 3 1 5 -13 5 -14 0 -19 -2 -12 -5z"/>
<path d="M31418 18633 c6 -2 18 -2 25 0 6 3 1 5 -13 5 -14 0 -19 -2 -12 -5z"/>
<path d="M31338 18623 c6 -2 18 -2 25 0 6 3 1 5 -13 5 -14 0 -19 -2 -12 -5z"/>
<path d="M24647 23238 c-13 -32 -13 -33 15 -39 16 -4 94 -10 174 -14 80 -4
142 -11 137 -15 -4 -4 -134 -66 -288 -138 -154 -72 -356 -167 -449 -211 -92
-45 -169 -81 -170 -81 0 0 0 48 2 107 2 68 8 111 15 116 7 5 2 7 -13 3 -24 -5
-24 -4 -6 9 11 8 17 15 13 15 -10 0 -540 -237 -862 -386 -344 -158 -1053 -510
-1350 -669 -1035 -554 -1973 -1162 -2558 -1658 l-89 -75 -231 -5 c-194 -4
-243 -8 -302 -25 -38 -11 -74 -28 -81 -36 -9 -13 -32 -16 -117 -16 -109 0
-162 -11 -155 -33 10 -28 263 -158 445 -228 35 -13 61 -29 59 -34 -5 -15 80
-13 96 3 6 6 17 12 24 12 17 0 1234 742 1779 1085 455 286 1143 675 2060 1164
313 167 1161 588 1450 720 318 145 627 275 849 357 l160 59 -50 7 c-130 19
-354 38 -444 38 l-100 0 -13 -32z"/>
<path d="M43922 19449 c-123 -15 -299 -82 -339 -130 -44 -54 32 -169 240 -361
67 -62 123 -116 125 -120 3 -5 -387 -572 -483 -703 -13 -17 -227 -242 -478
-500 -393 -407 -475 -487 -611 -594 -137 -108 -172 -141 -150 -141 3 0 79 59
169 130 143 114 219 188 615 598 l452 467 251 362 c139 200 255 362 260 360 4
-1 117 -109 252 -241 l246 -238 39 26 c30 20 40 33 40 54 0 22 2 24 11 12 18
-25 2 132 -25 250 l-24 105 -1 -110 c-2 -108 -2 -109 -17 -75 -9 19 -35 92
-59 163 -43 125 -48 165 -11 87 10 -22 28 -48 38 -57 19 -17 20 -17 33 0 15
21 16 13 -67 359 l-52 218 -80 26 c-45 14 -86 27 -93 29 -7 2 -10 -2 -7 -9 3
-7 40 -24 82 -36 42 -12 79 -24 81 -26 2 -2 -8 -17 -23 -34 -30 -36 -33 -77
-12 -158 8 -28 10 -50 6 -47 -5 3 -12 20 -15 37 -16 71 -42 115 -76 127 -18 6
-34 9 -36 7 -2 -2 -4 -74 -5 -160 -1 -86 -3 -154 -5 -152 -8 7 -62 175 -104
321 -23 83 -43 151 -43 152 -4 8 -64 9 -124 2z m514 -553 c6 -18 5 -19 -9 -8
-23 19 -55 110 -62 174 -5 50 -3 48 30 -47 19 -54 38 -108 41 -119z"/>
<path d="M44080 19406 c0 -60 14 -82 59 -94 l41 -10 0 54 0 53 -42 12 c-24 6
-46 13 -50 16 -5 2 -8 -12 -8 -31z"/>
<path d="M9125 18953 c-107 -10 -545 -77 -706 -109 -100 -19 -217 -48 -260
-64 -274 -100 -646 -400 -900 -725 -123 -159 -283 -404 -354 -544 -44 -89 -46
-106 -1 -24 42 78 239 371 325 484 303 397 704 719 981 788 233 58 1073 167
1107 143 19 -12 -51 -76 -181 -166 l-108 -76 -128 0 -128 0 -4 -25 c-5 -24 -5
-24 85 -27 l90 -3 -89 -59 c-49 -33 -113 -74 -144 -93 l-55 -34 38 33 c23 21
37 42 37 57 0 13 9 63 21 112 l21 88 136 3 137 3 -45 27 c-35 21 -64 28 -132
33 -84 7 -89 6 -109 -16 -46 -54 -85 -166 -104 -301 l-6 -47 -287 -182 c-615
-391 -676 -429 -638 -396 l40 34 2 129 c2 113 2 120 -5 53 -21 -195 -17 -185
-71 -223 -54 -39 -59 -36 -61 37 -1 23 -4 56 -8 72 -5 24 -9 14 -19 -55 -19
-125 -19 -123 -75 -158 -61 -38 -65 -34 -66 66 -1 34 -5 62 -11 62 -5 0 -10
-3 -10 -7 0 -5 -5 -50 -10 -101 -6 -72 -13 -97 -27 -108 -10 -7 -23 -12 -30
-9 -6 2 -13 0 -15 -6 -2 -5 -13 -11 -26 -14 -12 -2 -26 -6 -31 -10 -6 -3 -12
16 -14 42 l-3 48 -2 -47 c-2 -35 -7 -50 -21 -57 -10 -6 -21 -7 -25 -4 -3 3 -6
1 -6 -5 0 -7 -9 -12 -19 -12 -20 0 -39 -49 -26 -69 3 -6 60 25 128 69 l122 79
6 68 5 68 2 -63 c1 -39 6 -61 12 -57 6 3 10 4 10 2 0 -8 -362 -243 -459 -298
-50 -29 -91 -54 -91 -56 0 -7 209 102 311 164 59 35 181 115 271 178 90 62
370 243 623 402 504 315 845 539 1002 657 161 122 254 219 236 249 -4 7 -160
7 -238 0z m-1508 -1110 c-3 -10 -5 -2 -5 17 0 19 2 27 5 18 2 -10 2 -26 0 -35z
m-21 -99 c-9 -8 -11 -9 -6 -2 6 7 11 21 11 33 1 18 2 18 6 1 3 -10 -2 -25 -11
-32z"/>
<path d="M8528 18779 c-120 -9 -308 -45 -323 -61 -7 -8 -3 -9 15 -4 14 4 119
10 233 13 207 6 208 6 214 -16 8 -30 18 -26 44 17 13 20 27 43 32 50 9 14 -42
14 -215 1z"/>
<path d="M7901 18414 c0 -11 3 -14 6 -6 3 7 2 16 -1 19 -3 4 -6 -2 -5 -13z"/>
<path d="M7876 18274 c-3 -26 -5 -99 -4 -163 l1 -116 8 160 c4 88 6 161 5 163
-2 1 -6 -18 -10 -44z"/>
<path d="M39155 18090 c-705 -62 -1316 -312 -1895 -774 -154 -123 -493 -459
-626 -621 -263 -319 -464 -623 -589 -891 -196 -421 -312 -874 -372 -1454 -21
-207 -24 -858 -5 -1085 26 -304 101 -853 121 -882 3 -5 157 -21 341 -36 313
-25 349 -26 540 -16 l205 12 130 -129 c201 -201 408 -363 674 -529 32 -20 40
-29 30 -35 -7 -5 -17 -6 -23 -3 -5 3 -28 6 -50 5 -63 -2 -357 -23 -391 -28
-53 -8 -237 -23 -345 -30 -58 -3 -118 -10 -135 -15 -16 -5 -66 -9 -110 -10
-44 -1 -84 -4 -90 -8 -5 -3 -21 -6 -35 -7 -60 -2 -214 -17 -320 -31 -63 -8
-133 -17 -155 -19 -130 -13 -221 -27 -225 -34 -8 -12 -86 -31 -154 -36 -33 -3
-77 -9 -96 -14 -19 -5 -63 -10 -97 -12 -45 -2 -57 -5 -47 -13 11 -7 3 -11 -33
-13 -26 -2 -52 -7 -58 -11 -5 -5 -32 -11 -60 -15 -132 -17 -190 -30 -165 -37
22 -5 21 -7 -15 -13 -22 -4 -48 -11 -57 -17 -12 -6 -18 -6 -18 1 0 12 -51 5
-59 -8 -3 -5 -33 -12 -66 -15 -85 -9 -86 -9 -30 -17 l50 -7 -65 -2 c-47 -1
-61 -4 -50 -11 23 -15 -7 -32 -33 -18 -10 5 -21 7 -25 4 -3 -3 0 -6 6 -6 7 0
12 -5 12 -11 0 -6 -6 -9 -12 -6 -7 2 -18 -3 -24 -11 -8 -11 -15 -12 -32 -3
-11 6 -47 10 -79 9 -42 -1 -48 -2 -20 -5 55 -6 45 -20 -13 -19 -33 1 -54 -4
-59 -13 -5 -7 -14 -10 -20 -6 -7 4 -17 2 -24 -4 -10 -8 -71 -13 -170 -12 -9 0
-15 -4 -12 -10 4 -5 -3 -9 -14 -9 -12 0 -21 -5 -21 -11 0 -5 6 -7 13 -3 6 4 9
4 5 -1 -4 -4 -27 -9 -50 -10 -24 -1 -63 -6 -87 -10 -34 -6 -40 -10 -27 -17 14
-8 15 -13 5 -24 -8 -10 -8 -14 0 -14 6 0 11 -7 11 -16 0 -10 5 -14 15 -10 10
3 25 -8 44 -35 18 -24 31 -35 34 -27 3 8 6 6 6 -5 1 -11 6 -15 12 -11 6 3 21
2 32 -4 24 -12 143 -29 297 -43 52 -4 131 -13 175 -18 44 -6 195 -15 335 -21
265 -10 379 -18 392 -26 7 -5 184 -12 391 -18 26 0 47 -3 47 -6 0 -3 10 -5 23
-6 119 -3 373 -17 378 -20 4 -2 78 -6 165 -9 154 -5 292 -11 479 -22 50 -3
118 -6 152 -6 33 -1 57 -4 52 -7 -4 -3 36 -6 89 -7 53 -1 153 -5 222 -9 246
-13 1211 -5 1325 11 32 5 210 18 235 17 8 0 56 4 105 8 50 5 155 12 235 15 80
4 169 11 199 16 30 5 89 9 130 9 42 0 130 7 196 15 65 7 122 12 126 9 4 -2 68
0 141 6 73 5 171 10 218 11 46 1 94 5 106 9 11 5 108 11 215 14 159 4 213 10
300 30 59 14 121 27 139 28 17 1 34 6 36 10 3 4 22 8 42 8 20 1 55 8 77 16 35
14 91 29 135 37 8 2 36 13 62 25 47 21 48 22 35 49 -16 38 -39 63 -55 63 -7 0
-12 6 -11 13 3 26 -2 36 -21 42 -11 3 -20 13 -20 21 0 8 -8 14 -18 14 -9 0
-26 11 -36 25 -10 13 -23 22 -28 19 -5 -3 -17 3 -27 14 -18 22 -121 62 -156
62 -12 0 -25 3 -29 7 -7 7 -43 15 -81 17 -11 0 -22 4 -25 8 -7 9 -83 17 -187
20 -46 1 -83 5 -83 8 0 3 -33 4 -72 3 -40 0 -100 3 -133 9 -33 5 -73 11 -90
13 -16 1 -37 3 -45 4 -8 1 32 19 89 41 575 219 1062 575 1450 1059 50 63 91
118 91 123 0 18 48 11 282 -38 81 -17 183 -18 229 -3 46 16 97 55 119 92 59
96 180 749 280 1512 35 266 40 326 35 420 -60 1084 -381 1910 -975 2505 -521
523 -1233 841 -2150 961 -177 23 -554 33 -715 19z m390 -840 c734 -41 1323
-275 1789 -711 334 -312 597 -770 722 -1259 65 -252 124 -656 124 -849 0 -290
-87 -763 -187 -1016 -96 -246 -316 -577 -566 -855 -334 -372 -798 -663 -1283
-803 -307 -90 -527 -121 -834 -121 -252 0 -380 13 -608 60 -1099 225 -1889
1065 -2075 2204 -15 88 -34 352 -28 375 2 6 5 57 8 115 7 141 12 209 17 245 2
17 9 68 16 115 6 47 22 139 35 205 13 66 22 121 21 123 -2 2 -13 -23 -25 -55
-18 -51 -20 -53 -14 -18 10 66 69 276 108 381 47 130 188 415 261 529 425 666
1103 1140 1844 1289 130 26 268 44 380 49 36 2 76 4 90 5 14 1 106 -3 205 -8z"/>
<path d="M39896 16885 c-10 -33 -20 -65 -23 -71 -2 -6 32 -20 84 -34 230 -60
497 -170 644 -265 94 -60 339 -248 413 -316 31 -29 64 -65 72 -80 13 -26 13
-30 -6 -49 l-21 -21 -48 63 c-83 109 -243 249 -361 316 -19 11 -70 40 -113 66
-102 61 -227 123 -361 180 -122 52 -307 118 -313 112 -9 -9 -76 -296 -71 -302
4 -3 17 0 30 7 13 7 62 13 118 13 l95 1 185 -102 c134 -74 204 -107 255 -119
109 -26 132 -40 261 -169 143 -142 163 -183 95 -188 -11 -1 -21 -5 -21 -9 0
-4 -9 -8 -21 -8 -11 0 -17 -4 -14 -10 3 -5 -3 -10 -14 -10 -12 0 -58 -11 -103
-24 -51 -14 -99 -22 -123 -19 -22 2 -44 4 -50 3 -57 -9 -181 -9 -209 -2 -26 8
-36 7 -36 -1 0 -6 -11 5 -25 24 -14 19 -33 40 -42 47 -24 18 -75 15 -140 -8
-69 -24 -83 -25 -83 -4 0 10 -6 14 -14 11 -8 -3 -17 -3 -20 1 -7 6 -19 9 -78
19 -21 3 -38 10 -38 14 0 5 -6 9 -14 9 -8 0 -21 6 -28 13 -32 29 -38 19 -38
-68 0 -84 0 -86 28 -96 15 -6 61 -14 103 -18 l77 -7 142 -134 c77 -73 148
-146 155 -161 l14 -27 -72 -25 c-40 -14 -97 -33 -127 -41 -30 -9 -77 -22 -105
-30 l-50 -14 75 -1 c77 -1 167 15 255 44 90 30 288 132 395 204 367 248 624
433 624 449 0 24 -314 339 -404 404 -244 178 -494 299 -777 376 l-132 36 -3
40 -3 41 -19 -60z m847 -699 c32 -26 63 -58 69 -69 6 -12 -28 14 -76 58 -47
43 -86 80 -86 83 0 6 20 -9 93 -72z m83 -351 c-38 -36 -113 -95 -165 -133 -96
-68 -148 -101 -101 -64 14 11 93 74 175 141 83 66 152 120 155 120 3 0 -26
-29 -64 -64z"/>
<path d="M39003 16890 c-6 -16 -17 -32 -25 -34 -7 -2 -64 -16 -126 -31 -124
-29 -164 -43 -156 -56 3 -5 -6 -13 -20 -19 -14 -5 -26 -12 -26 -15 0 -4 6 -3
13 1 6 4 9 4 5 -1 -4 -4 -66 -27 -138 -51 -71 -24 -179 -68 -240 -99 -208
-107 -512 -326 -643 -463 l-58 -61 16 -38 c9 -21 28 -47 43 -58 15 -11 130
-99 257 -196 311 -237 374 -280 506 -344 214 -102 349 -111 456 -29 74 56 121
170 149 356 15 101 15 141 5 368 -7 140 -21 329 -30 420 -17 159 -17 167 0
217 18 49 37 163 28 163 -3 0 -10 -13 -16 -30z m-126 -162 c-3 -7 -5 -2 -5 12
0 14 2 19 5 13 2 -7 2 -19 0 -25z m37 -310 c30 -182 34 -571 8 -703 l-18 -90
0 117 c1 64 4 114 8 112 4 -3 5 2 2 11 -5 13 -16 15 -53 11 -58 -8 -82 5 -51
27 12 8 17 18 12 21 -6 3 -11 99 -12 233 -1 126 -2 239 -3 253 -2 25 6 29 90
39 7 0 14 -14 17 -31z m-114 -39 c0 -6 -4 -7 -10 -4 -5 3 -10 11 -10 16 0 6 5
7 10 4 6 -3 10 -11 10 -16z m60 -894 c-21 -35 -78 -85 -96 -85 -5 0 7 11 26
24 19 13 46 42 60 65 13 22 26 38 28 36 2 -2 -6 -20 -18 -40z"/>
<path d="M41732 15290 c-29 -10 -69 -29 -88 -41 -30 -18 -35 -25 -29 -48 67
-261 89 -424 89 -666 0 -168 -3 -218 -23 -314 -17 -87 -109 -396 -148 -498 -5
-11 114 -79 123 -70 3 2 -9 10 -25 17 -16 6 -32 18 -35 26 -3 7 8 42 23 76 88
194 143 525 145 868 1 224 -9 317 -52 491 -32 126 -35 119 61 155 40 15 53 23
37 23 -14 0 -49 -8 -78 -19z"/>
<path d="M37060 15203 c-57 -123 -97 -310 -111 -523 -10 -145 -22 -205 -39
-195 -22 13 -2 -319 31 -513 11 -68 31 -156 44 -195 24 -75 22 -98 -13 -157
-10 -15 4 -6 34 23 27 26 55 47 60 47 6 0 76 27 155 59 749 307 1031 507 1056
746 15 142 -96 254 -421 426 -66 34 -116 57 -112 51 4 -7 5 -12 3 -12 -2 0
-87 40 -188 89 -240 116 -400 181 -448 181 -31 0 -40 -5 -51 -27z"/>
<path d="M38963 15213 c-51 -10 -18 -23 55 -22 73 1 76 1 47 14 -30 14 -60 16
-102 8z"/>
<path d="M39658 15213 c18 -2 45 -2 60 0 15 2 0 4 -33 4 -33 0 -45 -2 -27 -4z"/>
<path d="M39579 15183 c-37 -32 -59 -79 -58 -125 l1 -33 12 35 c7 19 11 41 8
49 -3 9 -1 12 6 7 8 -5 10 -2 6 9 -7 16 12 45 29 45 5 0 2 -10 -9 -22 l-19
-23 23 19 c12 11 20 21 17 24 -3 3 2 14 12 24 24 27 9 22 -28 -9z"/>
<path d="M39752 15203 c35 -64 83 -133 86 -124 10 31 -29 100 -70 122 -11 6
-18 7 -16 2z"/>
<path d="M38886 15157 c-30 -40 -35 -64 -5 -27 24 31 41 60 35 60 -3 0 -16
-15 -30 -33z"/>
<path d="M39092 15170 c-7 -12 -8 -20 -2 -20 19 0 50 -64 50 -103 0 -42 -22
-91 -46 -105 -21 -11 -121 26 -169 62 -33 26 -45 25 -45 -3 0 -14 2 -14 11 -1
7 10 9 11 7 2 -6 -21 -23 -9 -23 16 1 12 -2 22 -6 22 -4 0 -10 8 -12 18 -3 9
-3 -1 -2 -22 8 -101 133 -169 224 -121 92 47 119 172 53 246 -26 29 -27 29
-40 9z"/>
<path d="M41250 15111 c-195 -78 -477 -204 -494 -222 -14 -13 -4 -19 61 -31
55 -10 61 -14 98 -66 22 -30 62 -74 89 -99 l49 -44 -6 -147 c-6 -153 -34 -338
-67 -455 l-19 -69 202 -98 c111 -53 210 -100 219 -103 13 -5 23 9 47 67 99
238 143 541 122 828 -17 217 -72 518 -95 518 -6 0 -99 -36 -206 -79z"/>
<path d="M38998 15173 c7 -3 16 -2 19 1 4 3 -2 6 -13 5 -11 0 -14 -3 -6 -6z"/>
<path d="M39203 15067 c2 -88 2 -88 14 -46 7 24 16 63 19 89 5 42 4 46 -15 46
-19 0 -20 -5 -18 -89z"/>
<path d="M39800 15040 c0 -31 -26 -75 -56 -95 -14 -9 -24 -13 -20 -7 3 5 -15
15 -40 22 -25 7 -64 26 -86 43 -26 19 -43 26 -46 18 -2 -6 -8 -9 -13 -5 -16 9
-10 -14 9 -32 9 -10 17 -22 17 -28 0 -5 16 -19 35 -30 47 -28 130 -28 167 0
62 46 97 134 53 134 -13 0 -20 -7 -20 -20z"/>
<path d="M39213 14790 c-93 -33 -157 -93 -202 -190 -21 -45 -25 -70 -25 -135
0 -101 33 -181 102 -246 l46 -44 -43 48 c-123 139 -128 327 -11 460 46 53 82
76 158 103 37 12 58 23 47 23 -11 0 -44 -8 -72 -19z"/>
<path d="M38446 14772 c-3 -5 1 -9 9 -9 8 0 12 4 9 9 -3 4 -7 8 -9 8 -2 0 -6
-4 -9 -8z"/>
<path d="M38478 14743 c6 -2 10 -9 7 -13 -3 -5 0 -12 6 -16 8 -5 9 -3 4 6 -5
8 -3 11 6 8 8 -3 13 -11 12 -17 -2 -6 0 -10 5 -9 4 1 34 -11 67 -26 33 -15 81
-32 107 -37 61 -14 143 -77 158 -125 17 -49 4 -106 -37 -167 -32 -47 -32 -50
-8 -27 60 54 86 172 52 236 -32 61 -94 101 -252 164 -41 16 -90 30 -108 29
-17 0 -26 -3 -19 -6z"/>
<path d="M38582 14621 c-14 -9 53 -21 116 -21 29 0 33 -2 22 -15 -10 -12 -9
-16 3 -21 28 -10 59 -88 51 -129 -6 -36 -55 -95 -77 -95 -8 0 -7 3 1 9 10 6 4
10 -20 15 -19 3 -60 21 -90 40 -53 32 -57 32 -61 14 -3 -11 -10 -17 -16 -13
-20 12 -11 -12 14 -39 96 -103 259 -51 280 89 8 51 -26 121 -74 152 -35 24
-122 32 -149 14z"/>
<path d="M39915 14600 c-39 -26 -25 -26 17 0 18 11 29 20 23 20 -5 0 -23 -9
-40 -20z"/>
<path d="M40557 14613 c-12 -12 -7 -50 8 -63 32 -27 82 23 55 55 -13 15 -51
20 -63 8z"/>
<path d="M38528 14583 c-9 -10 -21 -29 -27 -43 l-12 -25 21 25 c23 27 43 60
37 60 -2 0 -11 -8 -19 -17z"/>
<path d="M39860 14530 c-16 -40 -8 -115 17 -149 52 -69 141 -83 217 -35 35 22
46 35 46 54 0 24 -1 24 -19 -6 -11 -18 -24 -35 -30 -38 -17 -11 -107 20 -155
53 -31 22 -46 27 -49 18 -3 -6 -6 6 -7 28 -2 35 -3 37 -10 15 -7 -22 -8 -23
-9 -4 -1 12 4 35 10 53 15 42 5 51 -11 11z m51 -167 c13 -16 12 -17 -3 -4 -17
13 -22 21 -14 21 2 0 10 -8 17 -17z"/>
<path d="M40119 14526 c6 -8 16 -33 20 -57 l9 -44 1 58 c1 52 -1 57 -20 57
-17 0 -19 -3 -10 -14z"/>
<path d="M39885 14519 c-4 -6 -5 -12 -2 -15 2 -3 7 2 10 11 7 17 1 20 -8 4z"/>
<path d="M38492 14450 c0 -19 2 -27 5 -17 2 9 2 25 0 35 -3 9 -5 1 -5 -18z"/>
<path d="M38511 14434 c0 -11 3 -14 6 -6 3 7 2 16 -1 19 -3 4 -6 -2 -5 -13z"/>
<path d="M40768 14405 c-8 -19 -8 -28 2 -40 18 -21 57 -19 70 4 13 25 13 27
-6 45 -23 24 -53 20 -66 -9z"/>
<path d="M38480 14170 c-13 -9 -13 -10 0 -10 8 0 22 5 30 10 13 9 13 10 0 10
-8 0 -22 -5 -30 -10z"/>
<path d="M40560 14177 c0 -5 87 -67 94 -67 3 0 6 4 6 10 0 5 -22 21 -50 35
-27 14 -50 24 -50 22z"/>
<path d="M40897 14153 c-11 -11 -8 -48 5 -61 32 -32 87 18 58 53 -13 15 -51
20 -63 8z"/>
<path d="M38903 14076 c-38 -12 -113 -53 -113 -61 0 -2 26 8 58 23 41 19 77
27 133 30 73 4 77 3 111 -27 42 -37 58 -88 58 -188 0 -75 11 -106 31 -86 7 7
12 48 13 107 1 109 -9 131 -87 179 -54 34 -140 44 -204 23z"/>
<path d="M39558 14070 c-49 -27 -48 -33 2 -15 71 25 134 29 171 11 46 -22 320
-234 369 -286 3 -3 53 -47 112 -98 76 -65 114 -92 129 -90 16 2 -12 31 -133
134 -407 349 -419 357 -538 361 -60 3 -82 -1 -112 -17z"/>
<path d="M40420 14077 c3 -3 68 -28 145 -55 77 -28 131 -44 121 -37 -10 8 -69
31 -130 51 -61 20 -118 39 -126 42 -8 3 -13 3 -10 -1z"/>
<path d="M38894 14030 c-34 -13 -35 -25 -3 -25 16 0 29 3 29 7 0 3 9 4 20 1
16 -4 19 -2 14 11 -7 17 -27 20 -60 6z"/>
<path d="M39535 14016 c-16 -13 -28 -26 -25 -29 3 -3 20 8 38 24 39 35 29 39
-13 5z"/>
<path d="M38985 14020 c-3 -5 1 -10 10 -10 27 0 71 -30 89 -60 30 -51 13 -144
-31 -168 -26 -15 -133 27 -180 71 l-23 20 0 -24 c1 -28 15 -49 52 -73 16 -10
25 -23 21 -32 -4 -11 4 -14 34 -14 28 0 52 9 84 32 52 38 56 43 68 86 13 46
-4 100 -47 145 -35 36 -65 47 -77 27z"/>
<path d="M39745 13980 c-3 -5 1 -20 9 -32 9 -13 16 -43 16 -71 0 -42 -5 -54
-34 -83 -19 -19 -42 -34 -52 -33 -15 0 -13 3 6 11 24 10 23 11 -26 27 -28 9
-72 29 -97 45 -41 24 -48 25 -54 11 -12 -32 -23 8 -18 65 4 39 3 49 -4 35 -17
-36 -12 -98 12 -139 26 -46 77 -76 129 -76 48 0 74 11 121 52 l39 33 -13 83
c-12 78 -20 95 -34 72z"/>
<path d="M38815 13947 c-14 -34 -21 -107 -9 -95 9 10 36 120 30 126 -3 3 -13
-11 -21 -31z"/>
<path d="M41448 13827 c-10 -23 -18 -47 -18 -54 0 -12 30 -27 31 -15 0 4 2 31
5 60 3 28 4 52 2 52 -2 0 -11 -19 -20 -43z"/>
<path d="M38835 13790 c10 -11 20 -20 23 -20 3 0 -3 9 -13 20 -10 11 -20 20
-23 20 -3 0 3 -9 13 -20z"/>
<path d="M38534 13600 c-167 -38 -324 -123 -669 -364 -114 -80 -391 -325 -441
-391 l-38 -49 37 23 c47 29 41 32 207 -125 286 -272 492 -406 760 -494 93 -30
316 -80 359 -80 25 0 50 -49 52 -102 1 -27 3 -23 11 19 9 51 9 51 -37 112 -25
33 -55 67 -66 75 -19 13 -19 16 20 207 39 190 53 281 55 347 0 17 4 32 8 32 5
0 8 5 8 11 0 5 -4 7 -10 4 -5 -3 -10 -2 -10 4 0 5 4 11 10 13 5 2 12 32 14 68
2 36 5 67 6 70 1 3 1 10 0 15 -2 6 -4 84 -5 175 -2 174 -16 249 -56 319 -26
44 -20 48 11 6 14 -19 35 -36 48 -40 13 -3 20 -9 18 -14 -3 -5 4 -17 15 -27
l21 -19 -16 40 c-68 163 -145 203 -312 165z m-894 -847 c0 -8 -9 0 -50 45
l-45 47 48 -45 c26 -24 47 -45 47 -47z m526 -361 c-5 -4 -86 36 -86 43 0 3 20
-5 45 -17 24 -12 43 -23 41 -26z m89 -33 c22 -10 29 -16 15 -13 -28 7 -80 33
-65 33 6 0 28 -9 50 -20z m125 -46 c30 -11 31 -12 6 -8 -16 4 -43 13 -60 20
-23 11 -25 13 -6 8 14 -3 41 -12 60 -20z m97 -29 c-3 -3 -12 -4 -19 -1 -8 3
-5 6 6 6 11 1 17 -2 13 -5z m40 -10 c-3 -3 -12 -4 -19 -1 -8 3 -5 6 6 6 11 1
17 -2 13 -5z m46 -11 c-7 -2 -19 -2 -25 0 -7 3 -2 5 12 5 14 0 19 -2 13 -5z
m44 -9 c-3 -3 -12 -4 -19 -1 -8 3 -5 6 6 6 11 1 17 -2 13 -5z"/>
<path d="M39800 13361 c-14 -26 -3 -50 26 -57 42 -11 72 34 42 64 -18 18 -56
14 -68 -7z"/>
<path d="M40396 13324 c-21 -21 -17 -42 11 -61 19 -13 24 -12 43 7 19 19 20
24 7 43 -19 28 -40 32 -61 11z"/>
<path d="M40504 13219 c-201 -207 -490 -387 -761 -475 -65 -21 -119 -39 -121
-40 -4 -3 59 -427 64 -433 2 -2 36 4 76 14 365 88 759 308 1057 592 l105 99
-85 70 c-81 68 -252 203 -275 217 -6 3 -33 -17 -60 -44z"/>
<path d="M39739 13079 c-18 -18 -19 -23 -6 -42 18 -27 37 -32 61 -14 14 10 17
21 13 39 -9 34 -43 42 -68 17z"/>
<path d="M41015 12954 c1 -13 5 -27 10 -31 4 -5 5 -3 1 4 -3 6 -2 14 3 18 6 3
8 -6 5 -22 -7 -39 -155 -187 -289 -287 -198 -149 -413 -265 -665 -359 -110
-41 -333 -107 -361 -107 -24 0 -24 -5 7 -146 27 -129 40 -160 30 -74 -4 30 -9
73 -12 95 -2 22 -1 45 3 51 4 7 80 35 168 64 315 103 579 219 747 329 81 53
218 176 323 292 42 46 78 77 91 78 12 1 46 -21 80 -50 89 -77 116 -109 111
-130 -3 -11 -2 -19 2 -19 11 0 31 47 31 71 0 29 -39 101 -51 93 -6 -3 -8 -9
-5 -12 3 -3 0 -12 -7 -20 -8 -11 -8 -14 0 -9 6 4 14 3 17 -2 4 -5 2 -12 -3
-15 -5 -3 -34 24 -64 62 -30 37 -81 86 -113 108 -57 40 -60 41 -59 18z"/>
<path d="M11465 18079 c-1146 -95 -1963 -617 -2677 -1709 -191 -292 -282 -457
-337 -614 -140 -397 -166 -847 -86 -1516 56 -463 172 -958 361 -1530 74 -227
215 -614 227 -626 2 -2 110 43 239 101 149 66 248 105 269 105 29 0 46 -12
119 -86 179 -182 400 -357 624 -496 72 -45 137 -88 144 -97 8 -9 11 -10 7 -4
-4 9 -1 11 10 7 25 -10 4 -23 -45 -29 -59 -7 -80 -14 -80 -26 0 -6 -4 -7 -10
-4 -12 7 -80 -23 -80 -36 0 -5 -9 -9 -20 -9 -11 0 -29 -9 -40 -20 -11 -11 -24
-20 -30 -20 -5 0 -10 -4 -10 -10 0 -5 -9 -10 -20 -10 -11 0 -19 -6 -18 -12 2
-7 -7 -14 -19 -16 -13 -2 -23 -8 -23 -13 0 -5 -12 -9 -26 -9 -16 0 -23 -4 -18
-12 4 -7 3 -8 -5 -4 -13 8 -44 -12 -36 -24 2 -4 -11 -6 -30 -4 -22 1 -34 -2
-32 -9 1 -7 -6 -12 -15 -12 -9 0 -20 -4 -24 -8 -4 -4 -20 -7 -35 -7 -18 0 -32
-7 -39 -20 -6 -10 -28 -24 -50 -30 -22 -6 -40 -15 -40 -20 0 -6 -9 -10 -19
-10 -11 0 -26 -7 -35 -15 -8 -8 -17 -15 -20 -15 -2 0 -17 -5 -33 -12 -15 -6
-31 -12 -35 -12 -3 -1 -10 -4 -14 -8 -4 -5 -17 -8 -28 -8 -16 0 -17 -3 -8 -9
10 -6 6 -10 -15 -16 -15 -5 -31 -8 -35 -7 -4 1 -15 -9 -25 -21 -10 -12 -37
-29 -60 -36 -24 -8 -43 -20 -43 -27 0 -8 -8 -10 -22 -6 -12 3 -19 1 -15 -4 3
-6 2 -16 -4 -24 -6 -12 -9 -12 -9 -2 0 10 -3 10 -15 -2 -8 -8 -15 -19 -15 -25
0 -6 -5 -11 -11 -11 -14 0 -33 -20 -42 -44 -5 -13 -3 -17 7 -13 10 4 13 1 9
-9 -3 -8 1 -14 10 -14 8 0 17 -9 20 -20 3 -11 20 -27 39 -35 22 -9 27 -14 14
-15 -32 0 -12 -10 55 -26 88 -20 140 -35 164 -45 11 -4 36 -10 55 -12 94 -13
226 -27 335 -37 155 -15 190 -18 305 -30 108 -11 460 -28 660 -32 74 -1 140
-5 145 -9 12 -9 1304 -31 1815 -32 607 -1 1464 33 1680 67 19 3 69 10 110 15
95 11 119 17 139 34 9 8 24 17 34 20 25 9 23 57 -3 57 -11 0 -20 7 -20 15 0 8
-9 15 -21 15 -11 0 -17 4 -14 10 3 6 3 10 -2 11 -36 3 -59 12 -66 25 -6 11
-17 14 -34 9 -16 -4 -22 -2 -18 4 3 6 0 8 -8 5 -9 -3 -22 4 -30 17 -11 15 -28
23 -54 25 -71 5 -128 20 -125 32 1 7 -11 12 -32 12 -18 0 -50 7 -70 15 -19 8
-39 15 -43 14 -20 -3 -34 2 -28 11 3 6 -4 10 -17 10 -27 0 -43 9 -51 30 -4 12
-6 12 -6 -2 -1 -15 -4 -15 -27 -3 -15 7 -32 11 -39 9 -7 -3 -16 -1 -19 4 -3 6
-14 8 -25 5 -12 -3 -24 4 -35 19 -9 12 -19 22 -21 21 -6 -3 -35 6 -55 16 -8 5
-30 6 -48 3 -25 -3 -32 -1 -32 12 0 17 -45 40 -61 30 -5 -3 -9 0 -9 5 0 6 -9
11 -20 11 -10 0 -23 8 -28 17 -9 16 -88 44 -125 44 -10 0 -21 7 -24 15 -3 8
-13 14 -23 14 -10 0 -26 7 -34 16 -9 8 -20 13 -25 10 -5 -3 -14 1 -21 10 -7 8
-19 13 -26 10 -9 -3 -11 0 -7 11 5 13 2 15 -11 10 -19 -8 -76 29 -76 50 0 7
-9 17 -19 23 -11 5 -23 19 -26 30 -4 11 -10 18 -15 15 -5 -3 -12 0 -16 6 -4 7
-3 9 4 5 6 -3 17 -1 24 6 8 7 90 51 183 98 277 139 518 309 782 549 l121 111
179 0 c151 0 781 34 788 42 1 2 8 41 14 88 12 84 50 235 150 598 115 416 146
640 145 1052 -1 726 -124 1299 -394 1840 -532 1067 -1578 1906 -2685 2154
-233 53 -372 67 -665 71 -151 2 -324 -1 -385 -6z m685 -839 c451 -30 807 -121
1159 -296 692 -344 1166 -969 1344 -1774 79 -355 111 -701 88 -960 -22 -248
-103 -616 -176 -802 -101 -255 -287 -539 -551 -840 -516 -589 -1316 -942
-2129 -941 -533 2 -1018 130 -1444 382 -614 363 -1035 957 -1204 1696 -51 222
-65 316 -57 390 2 17 0 48 -4 70 -12 70 -15 160 -5 144 6 -9 9 18 8 77 -1 51
1 96 5 102 3 6 2 14 -4 17 -7 4 -7 11 -2 18 5 7 9 19 10 27 0 42 37 290 58
394 13 66 22 121 20 123 -3 3 -12 -20 -22 -51 -10 -31 -19 -54 -21 -52 -12 12
76 317 134 466 360 916 1202 1612 2153 1780 215 38 397 46 640 30z m1957
-6226 c-3 -3 -12 -4 -19 -1 -8 3 -5 6 6 6 11 1 17 -2 13 -5z m370 -106 c-3 -8
-6 -5 -6 6 -1 11 2 17 5 13 3 -3 4 -12 1 -19z"/>
<path d="M11582 16899 c-2 -29 -30 -59 -54 -59 -42 0 -253 -61 -261 -75 -6
-12 -12 -13 -22 -5 -15 13 -24 3 -20 -22 3 -16 -2 -20 -21 -17 -4 0 -10 -3
-13 -9 -3 -5 -51 -24 -106 -42 -254 -82 -596 -297 -828 -520 l-91 -87 9 -39
c9 -35 27 -52 170 -162 437 -336 515 -390 659 -457 151 -70 276 -90 358 -58
127 48 186 150 224 383 22 131 12 476 -23 795 -12 107 -8 204 11 265 9 30 15
73 13 95 -2 22 -4 28 -5 14z m-135 -171 c-3 -7 -5 -2 -5 12 0 14 2 19 5 13 2
-7 2 -19 0 -25z m10 -70 c-3 -8 -6 -5 -6 6 -1 11 2 17 5 13 3 -3 4 -12 1 -19z
m28 -240 c13 -63 28 -313 27 -468 0 -135 -5 -194 -20 -260 l-19 -85 1 77 c1
43 3 78 6 78 3 0 3 25 2 56 l-4 56 -49 -6 -49 -7 0 259 c0 187 -3 261 -12 270
-9 9 -9 12 0 12 7 0 12 6 12 14 0 13 17 18 82 24 11 1 20 -7 23 -20z m-55
-943 c-21 -35 -78 -85 -96 -85 -5 0 7 11 26 25 19 14 46 43 60 64 13 22 26 38
28 36 2 -2 -6 -20 -18 -40z"/>
<path d="M12466 16869 c-11 -30 -21 -59 -23 -65 -2 -6 21 -16 54 -23 172 -38
480 -157 621 -240 86 -50 364 -256 449 -332 83 -75 108 -111 94 -138 -17 -32
-34 -26 -70 25 -45 61 -153 169 -228 227 -124 95 -350 225 -542 311 -114 52
-359 146 -380 146 -9 0 -87 -298 -79 -306 3 -2 22 3 43 12 29 12 61 15 124 12
84 -4 89 -6 196 -67 166 -94 283 -147 358 -164 54 -12 78 -24 121 -61 73 -62
208 -201 247 -254 l32 -43 -24 -26 c-47 -51 -206 -178 -300 -239 -98 -65 -98
-65 -184 -54 -5 1 -1 5 9 9 19 7 19 8 0 13 -20 5 -22 3 -26 -40 -1 -10 -8 -19
-15 -19 -7 0 -10 4 -7 8 2 4 0 10 -6 14 -5 3 -10 1 -10 -6 0 -9 -4 -8 -15 1
-8 6 -44 13 -80 13 -36 1 -65 5 -65 10 0 4 -12 7 -26 7 -16 0 -23 4 -18 12 4
6 3 8 -4 4 -6 -3 -17 1 -25 9 -29 29 -31 15 -2 -15 16 -16 35 -30 42 -30 8 0
12 -4 9 -9 -3 -4 6 -19 20 -32 22 -21 54 -69 54 -82 0 -8 -242 -86 -288 -93
-23 -4 -45 -11 -49 -17 -12 -19 177 0 272 28 118 34 304 126 438 217 321 218
637 442 637 452 0 6 -13 20 -30 29 -16 10 -62 56 -102 104 -142 167 -367 341
-598 462 -174 91 -321 145 -560 208 -30 7 -36 14 -40 43 l-5 34 -19 -55z m858
-700 c53 -50 106 -105 118 -123 12 -17 -30 18 -93 78 -63 60 -121 115 -129
123 -8 7 -9 13 -3 13 6 0 54 -41 107 -91z"/>
<path d="M14287 15276 c-76 -31 -110 -55 -104 -71 12 -30 58 -248 74 -350 12
-78 17 -172 18 -320 0 -259 -12 -333 -101 -606 -35 -108 -64 -203 -64 -212 0
-11 26 -30 70 -52 38 -19 73 -35 77 -35 5 1 -13 12 -39 26 -56 28 -58 39 -24
115 91 199 156 638 143 964 -7 160 -24 286 -57 402 -18 64 -25 113 -17 113 1
0 34 11 72 25 53 18 63 25 40 25 -16 0 -56 -11 -88 -24z"/>
<path d="M9624 15175 c-57 -124 -104 -373 -104 -555 0 -75 -4 -101 -18 -123
-10 -15 -21 -25 -23 -23 -19 19 4 -333 32 -504 11 -69 32 -160 46 -202 l26
-78 -26 -51 -25 -51 46 44 c26 24 65 50 87 57 90 30 469 198 624 276 379 191
545 346 559 521 2 35 -1 77 -8 98 -18 55 -102 140 -209 210 -110 73 -278 160
-303 159 -9 -1 -81 31 -160 71 -178 90 -419 191 -476 200 l-43 6 -25 -55z"/>
<path d="M11525 15201 c-16 -7 -14 -9 14 -14 19 -4 56 -7 84 -7 38 0 48 -3 40
-11 -9 -9 -5 -21 16 -48 35 -45 42 -72 29 -117 -11 -42 -55 -88 -72 -76 -6 5
-32 16 -57 25 -25 10 -61 29 -79 42 -40 30 -50 31 -50 8 0 -16 2 -16 11 -3 9
12 10 12 5 -3 -3 -10 -6 -21 -6 -23 0 -3 -6 -2 -12 2 -8 5 -6 -2 3 -16 44 -66
137 -89 206 -51 62 36 78 66 78 143 0 60 -3 70 -30 99 -49 52 -122 72 -180 50z"/>
<path d="M12228 15203 c18 -2 45 -2 60 0 15 2 0 4 -33 4 -33 0 -45 -2 -27 -4z"/>
<path d="M12152 15173 c-15 -16 -23 -25 -18 -20 20 15 28 6 11 -13 -9 -10 -22
-18 -28 -17 -11 2 -24 -34 -26 -72 -1 -19 2 -22 11 -13 6 6 11 25 11 42 0 16
2 28 5 26 4 -5 57 53 57 63 0 3 4 12 8 19 14 21 -1 13 -31 -15z"/>
<path d="M12325 15188 c5 -7 16 -24 25 -38 9 -14 27 -43 40 -64 l24 -39 -22 5
c-18 5 -22 2 -22 -18 0 -31 -25 -80 -46 -92 -20 -11 -121 26 -168 61 -26 20
-33 22 -44 11 -17 -19 -17 -19 31 -67 69 -70 159 -72 224 -5 57 60 62 148 12
212 -23 29 -67 58 -54 34z m-195 -188 c0 -5 -5 -10 -11 -10 -5 0 -7 5 -4 10 3
6 8 10 11 10 2 0 4 -4 4 -10z"/>
<path d="M11468 15163 c-9 -10 -21 -29 -28 -43 -11 -21 -11 -23 1 -13 15 12
53 73 46 73 -2 0 -11 -8 -19 -17z"/>
<path d="M13815 15101 c-204 -83 -442 -191 -477 -215 l-21 -15 27 -11 c15 -5
38 -10 51 -10 38 0 54 -10 84 -54 16 -22 55 -67 86 -98 l58 -58 -6 -157 c-6
-166 -23 -287 -61 -429 l-23 -85 106 -51 c58 -27 156 -74 218 -103 l111 -53
25 56 c104 234 153 558 129 859 -19 242 -71 503 -100 502 -9 0 -102 -35 -207
-78z"/>
<path d="M11784 15133 c-7 -17 -9 -49 -5 -83 l7 -55 12 53 c21 93 12 148 -14
85z"/>
<path d="M11422 15055 c0 -16 3 -39 8 -50 8 -18 9 -18 8 5 0 14 -4 36 -8 50
-8 24 -8 24 -8 -5z"/>
<path d="M11793 14786 c-92 -29 -167 -99 -211 -195 -52 -116 -25 -274 61 -364
23 -24 33 -32 21 -18 -71 87 -95 149 -96 241 0 83 30 163 83 223 50 57 96 86
173 108 34 10 50 18 36 18 -14 0 -44 -6 -67 -13z"/>
<path d="M11040 14745 c-7 -8 -10 -16 -6 -16 3 -1 11 -3 16 -4 6 -1 16 -3 23
-4 8 -1 7 -4 -3 -11 -12 -8 -11 -10 6 -10 11 0 24 -4 30 -8 13 -13 91 -42 154
-58 30 -8 73 -29 97 -47 90 -68 96 -157 17 -266 l-26 -36 36 37 c43 45 70 129
60 185 -5 27 -21 52 -58 89 -48 48 -115 81 -320 160 -7 3 -19 -2 -26 -11z"/>
<path d="M11150 14610 c-11 -7 0 -10 40 -11 70 -2 119 -12 103 -22 -7 -5 -2
-17 17 -37 50 -53 51 -126 4 -174 l-25 -25 -54 19 c-30 10 -71 30 -92 44 -32
22 -39 24 -46 11 -4 -8 -5 -20 -1 -27 4 -6 3 -8 -4 -5 -5 4 -9 24 -7 45 2 29
1 31 -3 7 -6 -29 -6 -29 -12 10 l-7 40 -2 -35 c0 -19 8 -49 19 -67 53 -87 173
-103 246 -32 71 69 70 157 -2 227 -42 40 -48 42 -102 42 -31 0 -64 -5 -72 -10z"/>
<path d="M12497 14599 c-22 -11 -37 -23 -34 -25 5 -5 77 35 77 42 0 6 -1 5
-43 -17z"/>
<path d="M13130 14606 c-6 -8 -10 -25 -8 -38 2 -18 10 -24 35 -26 28 -3 33 0
39 24 11 42 -39 72 -66 40z"/>
<path d="M11094 14565 c-15 -20 -25 -37 -23 -39 2 -3 17 13 32 35 35 49 28 52
-9 4z"/>
<path d="M12431 14519 c-17 -48 -13 -90 12 -133 44 -77 141 -99 220 -50 23 15
45 32 49 38 4 6 8 44 8 84 0 59 -3 72 -16 72 -12 0 -14 -5 -8 -17 5 -10 9 -41
9 -69 0 -63 -23 -94 -69 -94 -31 0 -110 34 -155 67 -23 17 -24 17 -16 -7 7
-23 6 -24 -7 -6 -8 10 -13 30 -11 45 3 23 2 24 -6 6 -9 -20 -10 -20 -10 1 -1
12 4 35 10 53 6 18 9 34 6 37 -2 3 -10 -9 -16 -27z"/>
<path d="M12455 14509 c-4 -6 -5 -12 -2 -15 2 -3 7 2 10 11 7 17 1 20 -8 4z"/>
<path d="M13340 14401 c-13 -25 -13 -27 6 -45 35 -36 87 0 64 44 -14 26 -56
26 -70 1z"/>
<path d="M11073 14170 c-34 -14 -28 -21 7 -9 17 6 30 13 30 15 0 6 -12 4 -37
-6z"/>
<path d="M13139 14162 c37 -29 81 -54 81 -45 0 4 -24 21 -53 36 -33 18 -43 21
-28 9z"/>
<path d="M11737 14149 c7 -7 15 -10 18 -7 3 3 -2 9 -12 12 -14 6 -15 5 -6 -5z"/>
<path d="M13467 14143 c-14 -14 -6 -53 13 -63 38 -20 70 12 54 54 -6 16 -54
22 -67 9z"/>
<path d="M12185 14081 c-31 -8 -95 -39 -95 -45 0 -2 27 5 61 15 97 30 127 26
211 -30 78 -53 213 -162 401 -328 64 -56 122 -103 127 -103 6 0 13 0 16 1 4 0
11 -5 15 -13 6 -9 9 -9 9 -1 0 11 -342 311 -469 412 -102 80 -198 112 -276 92z"/>
<path d="M11456 14060 c-27 -11 -54 -24 -60 -30 -6 -6 12 -2 41 9 83 33 142
37 196 13 60 -27 79 -64 84 -167 3 -44 7 -87 10 -95 4 -8 6 -18 5 -22 -1 -3 4
-8 12 -11 7 -3 13 0 14 6 1 7 4 40 8 74 13 117 -17 176 -111 219 -62 29 -131
30 -199 4z"/>
<path d="M13000 14067 c3 -3 55 -24 115 -46 61 -21 118 -42 128 -46 9 -4 17
-3 17 3 0 5 -53 26 -117 47 -65 21 -125 40 -133 43 -8 3 -13 2 -10 -1z"/>
<path d="M12124 14021 c-18 -11 -35 -25 -39 -31 -14 -23 1 -17 39 16 45 39 45
42 0 15z"/>
<path d="M11463 14020 c-29 -12 -29 -17 2 -22 14 -3 22 -1 18 5 -3 5 3 7 15 3
13 -4 22 -1 26 9 6 17 -24 20 -61 5z"/>
<path d="M11589 13998 c74 -36 102 -118 66 -188 -15 -29 -71 -67 -83 -56 -3 3
0 6 6 6 27 0 9 16 -30 28 -24 7 -62 27 -85 43 -41 29 -43 29 -43 9 0 -12 17
-38 37 -58 21 -21 36 -43 35 -49 -6 -27 70 -14 119 20 57 38 83 90 73 145 -9
48 -77 122 -113 122 -23 -1 -21 -4 18 -22z"/>
<path d="M11391 13947 c-21 -43 -28 -97 -13 -97 8 0 44 132 37 138 -1 2 -12
-17 -24 -41z"/>
<path d="M12317 13973 c-3 -5 4 -24 15 -43 16 -27 19 -30 14 -10 -3 14 -6 33
-6 43 0 17 -15 23 -23 10z"/>
<path d="M12054 13925 c-23 -124 97 -229 207 -182 51 22 99 71 99 102 0 15 -4
24 -10 20 -5 -3 -10 -14 -10 -23 0 -9 -10 -29 -23 -45 l-22 -27 -67 23 c-37
13 -83 36 -102 51 -32 24 -36 25 -45 9 -13 -22 -15 -11 -11 60 2 55 -6 62 -16
12z m48 -90 c3 -13 1 -22 -3 -19 -9 5 -13 44 -5 44 2 0 6 -11 8 -25z m29 -52
c13 -16 12 -17 -3 -4 -17 13 -22 21 -14 21 2 0 10 -8 17 -17z m96 -39 c-3 -3
-12 -4 -19 -1 -8 3 -5 6 6 6 11 1 17 -2 13 -5z"/>
<path d="M12081 13904 c0 -11 3 -14 6 -6 3 7 2 16 -1 19 -3 4 -6 -2 -5 -13z"/>
<path d="M14010 13804 c-10 -30 -10 -38 1 -45 24 -15 27 -10 27 36 0 54 -12
58 -28 9z"/>
<path d="M11415 13770 c10 -11 20 -20 23 -20 3 0 -3 9 -13 20 -10 11 -20 20
-23 20 -3 0 3 -9 13 -20z"/>
<path d="M11125 13598 c-161 -39 -313 -114 -519 -255 -61 -42 -131 -90 -156
-106 -122 -83 -398 -326 -456 -402 l-38 -49 36 22 c19 12 40 22 46 22 6 0 71
-58 145 -128 280 -268 466 -395 707 -485 101 -37 258 -78 377 -97 40 -6 77
-18 84 -26 6 -8 14 -35 17 -62 5 -40 7 -43 13 -22 10 37 10 102 0 96 -5 -4
-19 9 -31 28 -11 19 -36 48 -55 65 l-34 29 44 219 c24 120 46 243 48 274 3 31
7 61 9 65 3 5 4 28 3 51 -1 23 2 40 7 37 11 -7 10 23 -1 45 -6 10 -6 23 -1 31
5 8 5 21 -1 31 -5 11 -5 20 0 23 15 9 11 284 -5 355 -8 36 -28 90 -45 120
l-29 56 59 -65 c33 -36 62 -62 66 -58 10 9 -27 88 -61 127 -52 63 -132 83
-229 59z m-1030 -728 c10 -11 16 -20 13 -20 -3 0 -13 9 -23 20 -10 11 -16 20
-13 20 3 0 13 -9 23 -20z m785 -540 c8 -5 11 -10 5 -10 -5 0 -17 5 -25 10 -8
5 -10 10 -5 10 6 0 17 -5 25 -10z m107 -36 c-3 -3 -12 -4 -19 -1 -8 3 -5 6 6
6 11 1 17 -2 13 -5z m70 -20 c-3 -3 -12 -4 -19 -1 -8 3 -5 6 6 6 11 1 17 -2
13 -5z"/>
<path d="M12379 13359 c-18 -18 -19 -23 -6 -42 28 -43 83 -26 75 24 -5 33 -44
43 -69 18z"/>
<path d="M12960 13310 c-8 -14 -8 -26 0 -40 14 -26 56 -26 70 -1 13 25 13 27
-6 45 -21 22 -51 20 -64 -4z"/>
<path d="M13075 13209 c-204 -209 -490 -386 -768 -476 -112 -36 -117 -39 -113
-63 3 -14 17 -108 32 -210 15 -102 30 -188 34 -193 9 -10 179 35 299 79 154
58 347 156 492 252 194 129 456 359 434 381 -24 22 -351 281 -355 281 -3 0
-28 -23 -55 -51z"/>
<path d="M12312 13078 c-34 -34 6 -90 48 -68 26 14 26 56 1 70 -25 13 -34 13
-49 -2z"/>
<path d="M13593 12946 c4 -9 1 -16 -5 -16 -7 0 -3 -6 7 -14 18 -13 14 -20 -75
-111 -273 -279 -735 -527 -1172 -630 -43 -10 -78 -23 -78 -29 0 -6 14 -67 29
-136 l29 -125 -5 107 c-5 87 -3 108 8 112 260 75 488 160 684 256 228 111 337
193 535 405 91 98 95 101 123 82 60 -40 146 -130 158 -164 l12 -36 13 24 c19
35 17 79 -7 118 -16 26 -23 31 -32 22 -8 -8 -9 -14 -1 -19 5 -4 10 -17 10 -29
0 -18 -5 -16 -35 20 -82 100 -216 209 -198 163z"/>
<path d="M7627 17983 c-2 -5 0 -21 4 -38 7 -29 7 -28 6 8 -1 38 -3 43 -10 30z"/>
<path d="M6960 15388 c-56 -9 -272 -107 -409 -187 -101 -59 -184 -140 -221
-215 -62 -125 -62 -250 1 -691 33 -229 95 -524 128 -608 10 -25 13 -26 33 -15
28 16 77 52 101 75 17 17 18 17 12 -2 -3 -11 1 -7 9 9 12 27 14 28 23 10 6
-10 18 -46 28 -79 43 -150 100 -228 220 -300 66 -39 213 -90 292 -100 47 -7
51 -5 75 24 64 75 88 206 88 469 0 234 -27 1009 -40 1142 -28 283 -68 389
-167 442 -58 31 -100 37 -173 26z"/>
<path d="M13246 11481 c-3 -5 1 -14 10 -21 12 -11 12 -15 2 -22 -10 -8 -10 -9
1 -6 17 5 24 38 8 35 -7 -1 -11 4 -9 11 2 14 -4 16 -12 3z"/>
<path d="M34938 11283 c7 -3 16 -2 19 1 4 3 -2 6 -13 5 -11 0 -14 -3 -6 -6z"/>
</g>
</svg>
